Coordinates
version=1
nRows=10
nColumns=40
inDegrees=yes

Units are S.I. units (second, meters, Newtons, ...)
If the header above contains a line with 'inDegrees', this indicates whether rotational values are in degrees (yes) or radians (no).

endheader
time	pelvis_tilt	pelvis_list	pelvis_rotation	pelvis_tx	pelvis_ty	pelvis_tz	hip_flexion_r	hip_adduction_r	hip_rotation_r	knee_angle_r	knee_angle_r_beta	ankle_angle_r	subtalar_angle_r	mtp_angle_r	hip_flexion_l	hip_adduction_l	hip_rotation_l	knee_angle_l	knee_angle_l_beta	ankle_angle_l	subtalar_angle_l	mtp_angle_l	lumbar_extension	lumbar_bending	lumbar_rotation	arm_flex_r	arm_add_r	arm_rot_r	elbow_flex_r	pro_sup_r	wrist_flex_r	wrist_dev_r	arm_flex_l	arm_add_l	arm_rot_l	elbow_flex_l	pro_sup_l	wrist_flex_l	wrist_dev_l
      0.15000000	     24.40239795	    -11.16032486	      7.18670075	     -0.98680559	      0.90919532	      0.20473985	     -3.11703349	     13.54431833	     -8.42009766	     19.13076139	      0.33389477	      1.20894684	      0.00000000	      0.00000000	    -29.67904311	    -17.66404904	    -10.04793961	     55.06717225	      0.96110347	     -7.24271269	      0.00000000	      0.00000000	    -40.48718772	     16.45961856	     -3.94469936	     -5.93434151	     -4.64914332	     -7.89318417	     25.40715708	     88.97000076	     -7.91483522	     16.35222610	      2.90131343	     -6.17013405	     -9.73676356	     51.92228357	     89.32581906	    -19.72202317	    -11.45040052
      0.16000000	     25.53782697	    -11.35472823	      6.78073679	     -0.97143328	      0.91291167	      0.20694056	     -5.32225886	     14.03090367	     -7.79618690	     19.44287332	      0.33934216	      2.08148384	      0.00000000	      0.00000000	    -29.57416583	    -17.94253710	    -10.11906771	     57.43319303	      1.00239832	     -7.85998565	      0.00000000	      0.00000000	    -41.74641396	     16.06898459	     -2.95394294	     -5.36543369	     -4.76722037	     -7.42777481	     25.72167407	     89.00519308	     -7.86414959	     16.43205327	      2.55984486	     -5.98348974	     -9.36133642	     50.96392381	     89.33031079	    -19.80756311	    -11.32504608
      0.17000000	     26.64285305	    -11.44363106	      6.29875054	     -0.95632131	      0.91677112	      0.20922775	     -7.63164999	     14.37563098	     -7.06416372	     19.50843834	      0.34048648	      2.96598272	      0.00000000	      0.00000000	    -29.34968248	    -18.03961241	    -10.17347506	     59.54086038	      1.03918405	     -7.93840031	      0.00000000	      0.00000000	    -42.97945560	     15.49971161	     -1.92876150	     -4.74530823	     -4.87691810	     -7.00658621	     26.09055431	     89.05189576	     -7.96916585	     16.39887391	      2.25830739	     -5.78187558	     -8.93279037	     49.82606729	     89.34620567	    -19.84511133	    -11.03208518
      0.18000000	     27.54698726	    -11.38624831	      5.40596444	     -0.94162189	      0.92055313	      0.21226402	     -9.85705843	     14.48435492	     -5.77606014	     19.40193943	      0.33862772	      3.99489326	      0.00000000	      0.00000000	    -28.96271974	    -17.81303518	    -10.61536489	     61.31507982	      1.07015002	     -7.41769205	      0.00000000	      0.00000000	    -44.10028856	     14.55568290	     -0.04795057	     -4.55933317	     -4.86917355	     -7.33762591	     27.02433904	     89.03936273	     -9.27434592	     16.07779011	      2.55525076	     -5.71109259	     -7.17080871	     47.95725535	     89.32096297	    -20.22154524	    -10.53961376
      0.19000000	     28.24910650	    -11.15450623	      4.98118218	     -0.92724158	      0.92395492	      0.21438213	    -11.86014764	     14.39327095	     -5.06062576	     19.14187899	      0.33408881	      4.86875557	      0.00000000	      0.00000000	    -27.96329571	    -17.56246035	    -10.31762510	     63.03810912	      1.10022256	     -6.26018000	      0.00000000	      0.00000000	    -44.91574010	     13.73838282	      0.56829685	     -3.76194628	     -4.96527136	     -6.88110906	     27.44185770	     89.09072529	     -9.34543525	     15.85404687	      2.23378667	     -5.53810247	     -6.77013283	     46.70467431	     89.33538945	    -20.17745120	    -10.18177447
      0.20000000	     28.71523662	    -10.73754804	      4.42095221	     -0.91310964	      0.92708356	      0.21686028	    -13.65661899	     14.06897845	     -4.28646159	     18.80640279	      0.32823365	      5.90789350	      0.00000000	      0.00000000	    -26.69117196	    -17.07161958	    -10.12497291	     64.38822153	      1.12378647	     -4.43255959	      0.00000000	      0.00000000	    -45.49209510	     12.68625505	      1.20782670	     -2.98529795	     -4.99259239	     -6.48479318	     27.94362648	     89.07744586	     -9.79247267	     15.42770188	      2.06050200	     -5.47516164	     -5.99767102	     45.15341982	     89.31659419	    -20.07459419	     -9.71310349
      0.21000000	     28.99127742	    -10.22224627	      3.91861951	     -0.89925645	      0.92993534	      0.21913304	    -15.23004463	     13.61620781	     -3.54706835	     18.41477057	      0.32139838	      6.79581058	      0.00000000	      0.00000000	    -25.10124828	    -16.47284511	     -9.82113229	     65.39997124	      1.14144483	     -2.50663274	      0.00000000	      0.00000000	    -45.88764023	     11.59312987	      1.75610583	     -2.17830139	     -5.02429272	     -6.17537508	     28.50635504	     89.09686599	    -10.34081567	     14.88507647	      1.92207424	     -5.37786495	     -5.27052749	     43.55458638	     89.32548508	    -19.95208699	     -9.22330001
      0.22000000	     29.12876848	     -9.62091001	      3.30485714	     -0.88555423	      0.93254797	      0.22163927	    -16.63457754	     13.02488160	     -2.83469171	     18.07442534	      0.31545823	      7.71284625	      0.00000000	      0.00000000	    -23.39658316	    -15.73798232	     -9.67765334	     65.95669316	      1.15116146	     -0.58317929	      0.00000000	      0.00000000	    -46.13504362	     10.35319015	      2.74793370	     -1.60891256	     -4.99100286	     -6.16321959	     29.13582545	     89.09265279	    -12.13911522	     13.34896138	      2.15560027	     -5.31412158	     -3.80579282	     41.51305941	     89.31254647	    -20.02353075	     -8.79131806
      0.23000000	     29.26999113	     -8.94498331	      2.87875641	     -0.87176994	      0.93502656	      0.22375745	    -18.08666935	     12.38382760	     -2.29645073	     17.55949314	      0.30647097	      8.46768450	      0.00000000	      0.00000000	    -21.67434416	    -14.96084095	     -9.42852709	     66.04453711	      1.15269463	      1.29515935	      0.00000000	      0.00000000	    -46.33315185	      9.18210436	      3.11932799	     -0.80556811	     -4.99820258	     -5.97206726	     29.81015337	     89.09828717	    -12.81535668	     12.57445327	      2.01485444	     -5.24588752	     -3.01012856	     39.77919816	     89.30918629	    -19.89566218	     -8.33284353
      0.24000000	     29.41029898	     -8.26767995	      2.49904989	     -0.85788444	      0.93734898	      0.22575556	    -19.55829586	     11.73430289	     -1.85604925	     16.96816067	      0.29615027	      9.08886300	      0.00000000	      0.00000000	    -20.01648825	    -14.17337930	     -9.26787238	     65.65524742	      1.14590024	      3.01210262	      0.00000000	      0.00000000	    -46.48446998	      8.03809992	      3.48628421	     -0.05588443	     -5.00678906	     -5.88905582	     30.58602235	     89.10087729	    -13.51444006	     11.74393580	      1.86741144	     -5.17053513	     -2.19254991	     37.98520025	     89.30467940	    -19.76401686	     -7.87764713
